<svg xmlns="http://www.w3.org/2000/svg" xmlns:xlink="http://www.w3.org/1999/xlink" version="1.1" x="0px" y="0px" viewBox="0 0 438.345 597.42" style="enable-background:new 0 0 438.345 477.936;" xml:space="preserve"><g><path d="M382.965,78.714c-0.303-1.426,0.194-2.904,1.296-3.857c1.103-0.953,2.636-1.233,4.004-0.727l27.941,10.328L384.534,4.445   c-1.04-2.628-3.347-4.286-6.17-4.435c-2.84-0.145-5.291,1.259-6.602,3.764l-8.678,16.59c-3.732,7.137-5.108,15.125-3.979,23.102   l-0.001-0.001l61.551,434.472c6.51-15.701,16.538-45.076,17.652-79.124C439.983,347.668,383.536,81.398,382.965,78.714z"/><path d="M331.347,218.024c1.134-1.241,2.924-1.641,4.478-1.002l13.391,5.514l-34.773-63.642   c-3.071,10.312-7.28,28.153-5.236,43.302c1.204,8.923,6.865,25.834,12.857,43.738c10.461,31.254,22.318,66.678,21.088,87.373   c-0.89,14.958-9.598,26.16-23.294,29.964c-16.386,4.552-34.376-2.566-44.766-17.713c-7.907-11.528-13.744-42.453-19.923-75.194   c-4.394-23.275-8.936-47.343-14.332-65.137c-7.363-24.277-13.158-26.045-15.304-25.674c-3.557,0.605-5.494,7.585-5.455,19.652   c0.042,13.234,2.335,31.104,4.764,50.023c4.702,36.641,10.032,78.171,0.387,99.955c-11.049,24.955-28.751,28.789-38.568,28.789   c-0.123,0-0.243-0.001-0.363-0.002c-18.535-0.179-37.161-13.836-45.295-33.211c-6.34-15.101-2.729-44.915,1.093-76.479   c3.628-29.965,7.74-63.928,0.064-73.513c-1.104-1.38-2.393-2.1-4.054-2.266c-8.61-0.853-25.947,26.999-42.612,81.892   c-5.729,18.876-8.409,38.145-10.773,55.145c-3.954,28.434-6.812,48.978-21.749,50.876c-5.828,0.745-11.12-0.937-15.721-4.989   c-16.523-14.556-17.808-54.985-17.808-67.03c0-25.529,9.048-53.061,14.447-67.218c-7.04,2.074-15.356,1.925-20.926-5.367   c-3.313-4.336-5.945-13.689,9.366-44.728c0.609-1.233,1.224-2.457,1.84-3.663c-19.678,24.332-35.664,54.817-34.058,65.606   c1.98,13.299,16.649,13.579,17.272,13.584c1.242,0.011,2.417,0.599,3.166,1.59c0.748,0.992,1.002,2.275,0.672,3.473   c-0.069,0.251-6.932,25.386-8.325,49.762c-1.514,26.511,3.423,55.115,12.005,69.56c4.398,7.401,12.377,12.843,21.344,14.555   c10.025,1.914,20.527-0.879,29.578-7.862c16.429-12.679,19.452-37.74,22.376-61.976c0.72-5.966,1.465-12.135,2.399-18.028   c4.396-27.728,14.455-51.394,14.881-52.388c0.644-1.501,2.111-2.424,3.676-2.424c0.367,0,0.738,0.05,1.106,0.156   c1.938,0.558,3.158,2.471,2.847,4.463c-0.111,0.706-10.867,71.039,5.605,104.477c8.885,18.034,22.684,30.934,38.854,36.322   c14.232,4.742,29.529,3.306,44.233-4.156c33.087-16.795,29.877-55.443,29.724-57.08c-0.189-2.03,1.179-3.882,3.177-4.293   c2.005-0.409,3.985,0.745,4.612,2.686c0.115,0.354,11.906,35.858,37.577,45.451c15.021,5.613,33.283,4.071,47.66-4.027   c10.21-5.752,23.321-17.572,27.8-41.22c8.612-45.485-31.191-122.304-31.594-123.074   C329.978,221.084,330.213,219.266,331.347,218.024z"/><path d="M173.459,154.922c1.855,1.193,4.333,0.657,5.528-1.2l4.97-7.724c-0.401,5.618,0.107,11.178,2.519,15.267   c2.115,3.585,5.489,5.803,9.759,6.414c0.736,0.105,1.463,0.157,2.177,0.157c3.421,0,6.563-1.2,9.186-3.53   c5.075-4.509,7.588-12.775,8.822-20.354c2.671,4.249,6.192,8.327,10.657,10.632c4.638,2.392,9.596,2.635,14.732,0.724   c6.213-2.313,8.495-6.499,9.314-9.604c3.254-12.322-10.666-29.378-12.264-31.282c-1.419-1.69-3.94-1.912-5.633-0.493   c-1.692,1.418-1.915,3.94-0.497,5.634c5.004,5.979,12.323,17.811,10.657,24.104c-0.317,1.198-1.115,2.933-4.369,4.144   c-2.976,1.11-5.679,1-8.263-0.33c-7.32-3.768-12.096-16.337-13.316-20.858c-0.524-1.955-2.417-3.224-4.434-2.924   c-2.005,0.288-3.479,2.03-3.43,4.055c0.147,6.121-0.877,24.875-7.292,30.573c-1.413,1.256-2.973,1.716-4.916,1.435   c-1.881-0.269-3.114-1.058-3.999-2.556c-3.749-6.351,0.095-22.554,3.398-31.274c0.725-1.915-0.112-4.068-1.94-4.99   c-1.829-0.922-4.058-0.314-5.164,1.407l-17.403,27.048C171.064,151.251,171.601,153.727,173.459,154.922z"/><path d="M223.493,47.517c-2.348-15.552-14.25-24.759-20.894-28.765l-4.819,26.769c10.772,10.703,16.808,24.013,18.042,39.727   C220.567,74.493,225.357,59.864,223.493,47.517z"/></g><text x="0" y="492.936" fill="#000000" font-size="5px" font-weight="bold" font-family="'Helvetica Neue', Helvetica, Arial-Unicode, Arial, Sans-serif">Created by Amethyst Studio</text><text x="0" y="497.936" fill="#000000" font-size="5px" font-weight="bold" font-family="'Helvetica Neue', Helvetica, Arial-Unicode, Arial, Sans-serif">from the Noun Project</text></svg>